<?xml version="1.0" encoding="UTF-8"?>
<!DOCTYPE svg PUBLIC "-//W3C//DTD SVG 1.1//EN" "http://www.w3.org/Graphics/SVG/1.1/DTD/svg11.dtd">
<!-- Creator: CorelDRAW 2020 (64-Bit) -->
<svg xmlns="http://www.w3.org/2000/svg" xml:space="preserve" width="111024px" height="28346px" version="1.1" style="shape-rendering:geometricPrecision; text-rendering:geometricPrecision; image-rendering:optimizeQuality; fill-rule:evenodd; clip-rule:evenodd"
viewBox="0 0 111024 28346.55"
 xmlns:xlink="http://www.w3.org/1999/xlink"
 xmlns:xodm="http://www.corel.com/coreldraw/odm/2003">
 <defs>
  <style type="text/css">
   <![CDATA[
    .fil6 {fill:#37281A}
    .fil0 {fill:#777777}
    .fil4 {fill:#FDCC9B}
    .fil8 {fill:#222222;fill-rule:nonzero}
    .fil9 {fill:#294B6E;fill-rule:nonzero}
    .fil5 {fill:#37281A;fill-rule:nonzero}
    .fil2 {fill:turquoise;fill-rule:nonzero}
    .fil10 {fill:#9ABADB;fill-rule:nonzero}
    .fil1 {fill:#FDCC9B;fill-rule:nonzero}
    .fil11 {fill:white;fill-rule:nonzero}
    .fil7 {fill:#37281A;fill-opacity:0.901961}
    .fil3 {fill:#3B342F;fill-opacity:0.901961}
   ]]>
  </style>
 </defs>
 <g id="Слой_x0020_1">
  <metadata id="CorelCorpID_0Corel-Layer"/>
  <circle class="fil0" cx="59587.22" cy="13877.63" r="1109.17"/>
  <g id="_1845836620912">
   <polygon class="fil1" points="59404.64,14582.63 59771.95,14582.63 59771.95,14171.25 59404.64,14171.25 "/>
   <path class="fil2" d="M59588.3 14799.34l-614.65 0c-69.1,-45.97 -132.77,-99.44 -189.79,-159.31 155.74,-153.76 493.01,-303.5 804.44,-303.5 310.68,0 647.07,149.02 803.31,302.38 -57.28,60.33 -121.31,114.17 -190.83,160.43l-612.48 0z"/>
  </g>
  <g id="_1845836622256">
   <path class="fil2" d="M60313.47 14599.84c-14.54,-6.97 -30.16,-12.93 -46.8,-17.86l-267.96 -102.25c-14.48,-5.94 -29.09,-11.55 -43.88,-16.75 -43.61,55.42 -160.17,172.38 -366.58,172.38 -35.26,0 -67.9,-3.43 -98.01,-9.37l-0.02 -0.05c-145.95,-28.83 -232.3,-116.93 -268.53,-162.93 -14.72,5.18 -29.28,10.76 -43.7,16.68l-268.25 102.35c-16.49,4.9 -31.98,10.8 -46.41,17.71 -9.8,4.69 -19.08,9.86 -27.96,15.38l-0.08 -0.04c-15.88,9.84 -30.36,20.93 -43.56,33.03 201.55,207.4 483.44,336.31 795.49,336.31 312.57,0 594.89,-129.34 796.5,-337.36 -12.89,-11.68 -26.99,-22.42 -42.41,-31.98l0 0 -0.08 0.04c-8.82,-5.48 -18.04,-10.62 -27.76,-15.29z"/>
   <path class="fil2" d="M59588.3 14336.53c-89.85,0 -181.84,12.55 -271.02,33.98 0.6,0.79 98.92,127.63 271.02,127.63 159.37,0 265.32,-108.62 280.67,-125.33 -92.19,-22.88 -187.58,-36.28 -280.67,-36.28z"/>
  </g>
  <path class="fil1" d="M59404.64 14352.54c0,0 53.72,66.63 183.65,66.63 129.93,0 183.66,-66.63 183.66,-66.63 0,0 -190.54,-69.36 -367.31,0z"/>
  <polygon class="fil3" points="59756.06,14063.18 59894.86,13991.22 59897.33,13982.54 59897.29,13982.55 59936.82,13843.48 59798.03,13915.51 "/>
  <path class="fil1" d="M59140.99 13529.2c20.14,-18.46 65.15,-9.1 82.5,2.19 -3.8,23.66 -4.02,47.87 -0.73,71.77l20.46 149.04c0,12.02 0.38,23.81 1.07,35.39 -49.9,15.05 -79.6,-29.75 -83.77,-60.5 -1.8,-13.23 -4.74,-26.28 -8.82,-39.01 -13.27,-41.45 -61.16,-112.65 -10.71,-158.89l0 0.01z"/>
  <path class="fil1" d="M60040.22 13529.19c-20.13,-18.45 -65.15,-9.09 -82.49,2.2 3.8,23.66 4.01,47.86 0.73,71.76l-20.46 149.05c0,12.02 -0.38,23.8 -1.08,35.39 49.9,15.05 79.6,-29.75 83.78,-60.5 1.79,-13.23 4.73,-26.28 8.81,-39.01 13.28,-41.45 61.16,-112.65 10.71,-158.89l0 0z"/>
  <path class="fil4" d="M59588.3 13057.99c212.28,0 384.38,276.3 384.38,617.13 0,340.83 -172.1,617.13 -384.38,617.13 -212.29,0 -384.38,-276.3 -384.38,-617.13 0,-340.83 172.09,-617.13 384.38,-617.13z"/>
  <path class="fil5" d="M60037.89 13353.36c-11.19,-42.84 -22.38,-85.68 -33.56,-128.52 9.47,10.05 18.94,20.09 28.41,30.14 -6.22,-40.86 -28.6,-79.03 -61.22,-104.4 9.62,3.32 19.24,6.65 28.86,9.97 -8.25,-2.85 -21.99,-26.67 -28.88,-33.53 -10.81,-10.76 -22.46,-20.66 -34.79,-29.64 -24.68,-17.99 -52.06,-32.24 -80.93,-42.15 -14.14,-4.85 -40.01,-15.85 -58.07,-12.07 -9.55,-1.52 -19.3,-2.59 -29.41,-2.76 0,0 -0.84,-1.94 -2.39,-5.05 -19.2,-81.66 -95.18,-146.91 -179,-152.63 16.39,15.38 32.79,30.75 49.18,46.13 -60.5,-3.18 -121.01,-6.37 -181.51,-9.56 24.54,3.11 45.84,10.93 53.46,32.11 -59.52,-14.63 -123.31,-2.14 -179.51,22.34 24.48,6.5 48.47,5.99 72.95,12.48 -55.08,30.43 -110.17,60.86 -165.25,91.29 9.66,-1.76 19.33,-3.53 28.99,-5.3 -29.32,50.29 -58.64,100.57 -87.96,150.86 7.5,-7.99 15.56,-15.42 24.03,-22.34 -16.06,39.8 -23.2,95.48 -32.74,218.34l39.98 359.85 25.87 0c0,0 -39.98,-162.29 2.35,-246.96 42.34,-84.67 -4.7,-190.51 54.1,-199.91 58.8,-9.41 209.32,117.6 439.81,-11.76 0,0 138.77,61.15 150.53,77.61 11.76,16.47 -35.28,54.1 4.7,101.14 39.99,47.04 84.15,62.76 65.33,281.49l16.99 -1.61c0,0 11.15,-117.76 20.55,-241 1.56,5.26 3.03,10.55 4.91,15.74 1.71,4.7 5.26,10.32 10.11,9.12 4.54,-1.12 5.41,-7.1 5.35,-11.77 -0.45,-30.94 -0.9,-61.88 -1.35,-92.81 6.87,13 13.75,26 20.62,39 -3.7,-52.31 -7.4,-104.63 -11.09,-156.94 0.01,9.67 11.8,17.18 20.57,13.1l0.01 0z"/>
  <path class="fil5" d="M59951.75 13778.92l-67.56 207.93 -295.32 153.27 -295.31 -153.27 -59.47 -209.23 -25.71 0 6.27 203.7c1.87,74.22 37.68,143.49 97.15,187.94l147.83 110.5c76.64,57.28 181.84,57.28 258.48,0l147.84 -110.5c59.47,-44.45 95.27,-113.72 97.15,-187.94l5.11 -202.4 -16.46 0z"/>
  <g id="_1845836617504">
   <polygon class="fil6" points="59526.2,14107.6 59525.72,14108.53 59292.68,13987.71 59293.4,13986.31 59293.56,13986.85 "/>
   <polygon class="fil6" points="59248.69,13829.22 59248.77,13829.27 59293.56,13986.85 59426.79,14056 59426.35,14056.86 59213.58,13946.54 59212.14,13899.72 "/>
  </g>
  <polygon class="fil7" points="59251.32,13859.03 59379.36,13925.41 59381.64,13933.42 59381.6,13933.4 59418.07,14061.7 59290.03,13995.25 "/>
  <polygon class="fil7" points="59761.97,14061.7 59890.01,13995.31 59892.29,13987.31 59892.25,13987.32 59928.72,13859.03 59800.68,13925.48 "/>
  <path class="fil8" d="M59163.57 13564.4c-0.34,14.37 4.91,20.02 9.12,24.57 1.34,1.47 2.52,2.73 3.4,4.22 1.99,3.33 3.4,7.47 4.2,12.31 17.35,105.21 21.26,119.55 65.3,142.75 21.08,11.11 64.43,18.57 107.85,18.57 33.86,0 82.77,-4.46 123.44,-25.68 59.25,-30.92 81.33,-137.65 82.37,-143.02 0.06,-0.54 1.81,-13.27 28.88,-13.27l0.03 0 1.66 -0.02c25.68,0 27.45,12.75 27.63,14.13 0.91,4.53 23,111.25 82.25,142.18 40.68,21.23 89.58,25.68 123.44,25.68 43.43,0 86.77,-7.47 107.85,-18.57 44.05,-23.2 47.95,-37.55 65.3,-142.76 0.79,-4.83 2.21,-8.97 4.2,-12.31 0.88,-1.49 2.05,-2.75 3.4,-4.22 4.21,-4.55 9.46,-10.23 9.12,-24.57 -0.06,-2.4 0.04,-6.68 0.14,-11.37 0.17,-7.15 0.33,-15.21 0.09,-19.55 -1.25,-21.28 -20.08,-29.95 -29.55,-31.49 -60.59,-12.45 -133.33,-16.05 -210.12,-10.54l-4.01 0.29c-46.84,3.31 -72.63,5.13 -103.38,18.9 -7.14,3.2 -14.47,6.82 -20.97,10.15 -11.56,5.96 -28.26,12.42 -37.23,14.39 -3.61,0.8 -7.27,1.59 -10.51,2.24 -4.67,0.95 -13.7,0.95 -18.36,0 -3.25,-0.66 -6.91,-1.44 -10.53,-2.24 -8.95,-1.97 -25.64,-8.43 -37.21,-14.39 -6.49,-3.33 -13.83,-6.95 -20.97,-10.15 -30.75,-13.77 -56.54,-15.59 -103.38,-18.9l-4.01 -0.29c-76.82,-5.49 -149.66,-1.88 -209.82,10.49 -9.76,1.6 -28.57,10.27 -29.82,31.55 -0.27,4.34 -0.09,12.4 0.07,19.56 0.09,4.7 0.19,8.98 0.13,11.36zm491.98 -3.55c2.97,-7.37 21.65,-31.9 137.53,-38.65 20.31,-1.18 37.54,-1.76 52.68,-1.76 68.33,0 90.08,12.28 103.01,32.09 7.74,11.85 13.01,36.65 13.07,52.36 0.14,34.32 -6.76,95.33 -54.35,118.39 -21.81,10.57 -54.51,16.88 -87.46,16.88 -63.25,0 -113.8,-21.51 -135.2,-57.51 -45.04,-75.63 -29.83,-120.54 -29.28,-121.8zm-427.78 -8.33c12.95,-19.82 34.7,-32.09 103.01,-32.09 15.15,0 32.38,0.58 52.7,1.76 115.85,6.76 134.54,31.3 137.86,39.51 0.18,0.41 15.4,45.34 -29.59,120.96 -21.42,36 -71.96,57.5 -135.2,57.5 -32.96,0 -65.67,-6.31 -87.48,-16.87 -47.59,-23.07 -54.49,-84.07 -54.35,-118.39 0.06,-15.74 5.32,-40.52 13.05,-52.38z"/>
  <path class="fil5" d="M59748.06 13985.63l-29.69 -47.5 -129.82 -35.02 -129.81 35.02 -26.14 47.8 -11.3 0 2.75 -46.54c0.83,-16.95 16.56,-32.78 42.71,-42.93l64.98 -25.25c33.69,-13.09 79.93,-13.09 113.62,0l64.99 25.25c26.14,10.15 41.88,25.98 42.7,42.93l2.25 46.24 -7.24 0z"/>
  <path class="fil5" d="M59748.06 14001.84l-29.69 -47.5 -129.82 -35.02 -129.81 35.02 -26.14 47.8 -11.3 0 2.75 -46.54c0.83,-16.95 16.56,-32.78 42.71,-42.93l64.98 -25.25c33.69,-13.08 79.93,-13.08 113.62,0l64.99 25.25c26.14,10.15 41.88,25.98 42.7,42.93l2.25 46.24 -7.24 0z"/>
  <polygon class="fil5" points="59749.89,14122.45 59722.31,13944.31 59748.14,13985.63 59755.3,13985.63 59756.95,14122.45 "/>
  <polygon class="fil5" points="59454.81,13945.31 59430.26,14129.75 59419.23,14129.75 59421.3,13985.93 59432.59,13985.93 "/>
  <g id="_1845637974912">
   <polygon class="fil9" points="59771.38,14529.95 59587.73,14529.95 59571.32,14817.82 59771.38,14801.41 "/>
   <polygon class="fil9" points="59404.08,14529.95 59404.08,14801.41 59587.73,14817.82 59587.73,14529.95 "/>
   <polygon class="fil9" points="59797.51,14801.41 59587.73,14801.41 59571.32,14827.55 59587.73,14853.69 59797.51,14853.69 "/>
   <rect class="fil9" x="59377.94" y="14801.42" width="209.79" height="52.27"/>
   <polygon class="fil10" points="59746.79,14554.53 59587.73,14554.53 59571.32,14665.68 59587.73,14776.83 59746.79,14776.83 "/>
   <rect class="fil10" x="59428.67" y="14554.53" width="159.06" height="222.29"/>
   <polygon class="fil11" points="59524.49,14730.81 59459.36,14665.68 59524.49,14600.55 59541.87,14617.94 59494.12,14665.68 59541.87,14713.42 "/>
   <polygon class="fil11" points="59650.97,14730.81 59633.58,14713.42 59681.33,14665.68 59633.58,14617.94 59650.97,14600.55 59716.1,14665.68 "/>
   <rect class="fil11" transform="matrix(-0.273144 -0.0543336 0.0543336 -0.273144 59584.6 14744.3)" width="88.28" height="557.99"/>
  </g>
 </g>
</svg>
